# xmcd
#
# Track frame offsets:
#	150
#	17840
#	41082
#	60210
#	80035
#	101090
#
# Disc length: 1690 seconds
#
# Revision: 1
# Processed by: cddbd v1.5PL3 Copyright (c) Steve Scherf et al.
# Submitted via: EasyCDDAExtractor 6.2.0.3
#
DISCID=45069806
DTITLE=R.Kelly - Bump n' Grind [CDS)
DYEAR=1993
DGENRE=R&B
TTITLE0=Bump n' Grind (Havok Mix)
TTITLE1=Bump n' Grind (Jerv Remix)
TTITLE2=Bump n' Grind
TTITLE3=Bump n' Grind (Old School Mix)
TTITLE4=Bump n' Grind (How I Feel It Mix)
TTITLE5=Bump n' Grind (How I Feel It Mix Extended)
EXTD=
EXTT0=
EXTT1=
EXTT2=
EXTT3=
EXTT4=
EXTT5=
PLAYORDER=
